# xmcd CD database file
#
# Track frame offsets:
#	150
#	21240
#	43162
#	64230
#
# Disc length: 1146 seconds
#
# Revision: 0
# Processed by: cddbd v1.5PL3 Copyright (c) Steve Scherf et al.
# Submitted via: CDex 1.50beta9
#
DISCID=33047804
DTITLE=佐田 真由美 - Kiseki
DYEAR=1900
DGENRE=Pop
TTITLE0=Kiseki
TTITLE1=upper love
TTITLE2=kiseki-Instrumental-
TTITLE3=upper love-Instrumental-
EXTD=
EXTT0=
EXTT1=
EXTT2=
EXTT3=
PLAYORDER=
